# xmcd CD database file
#
# Track frame offsets:
#	150
#	12745
#	22120
#	31218
#	44479
#	56606
#	65606
#	78356
#	87064
#	97429
#	108211
#	118210
#	128284
#	139909
#	149407
#	159415
#	172114
#	185929
#	195259
#	204936
#
# Disc length: 2862 seconds
#
# Revision: 0
# Processed by: cddbd v1.5.2PL0 Copyright (c) Steve Scherf et al.
# Submitted via: CDex 1.70beta2
#
DISCID=210b2c14
DTITLE=Jim Reeves - The Country Music Gentleman CD 3
DYEAR=1900
DGENRE=Country
TTITLE0=Four Walls
TTITLE1=Ramona
TTITLE2=SweetSue Just You
TTITLE3=It Is No Secret
TTITLE4=Precious Memories
TTITLE5=Overnight
TTITLE6=Suppertime
TTITLE7=Marie
TTITLE8=In The Garden
TTITLE9=I Love You More
TTITLE10=Linda
TTITLE11=The Flowers, The Sunset, The Trees
TTITLE12=Mona Lisa
TTITLE13=Margie
TTITLE14=A Beautiful Life
TTITLE15=Goodnight Irene
TTITLE16=Whispering Hope
TTITLE17=My Mary
TTITLE18=Charmaine
TTITLE19=Blue Boy
EXTD=
EXTT0=
EXTT1=
EXTT2=
EXTT3=
EXTT4=
EXTT5=
EXTT6=
EXTT7=
EXTT8=
EXTT9=
EXTT10=
EXTT11=
EXTT12=
EXTT13=
EXTT14=
EXTT15=
EXTT16=
EXTT17=
EXTT18=
EXTT19=
PLAYORDER=
